Coordinates
version=1
nRows=34
nColumns=38
inDegrees=no

Units are S.I. units (second, meters, Newtons, ...)
If the header above contains a line with 'inDegrees', this indicates whether rotational values are in degrees (yes) or radians (no).

endheader
time	pelvis_tilt	pelvis_list	pelvis_rotation	pelvis_tx	pelvis_ty	pelvis_tz	hip_flexion_r	hip_adduction_r	hip_rotation_r	knee_angle_r	ankle_angle_r	subtalar_angle_r	mtp_angle_r	hip_flexion_l	hip_adduction_l	hip_rotation_l	knee_angle_l	ankle_angle_l	subtalar_angle_l	mtp_angle_l	lumbar_extension	lumbar_bending	lumbar_rotation	arm_flex_r	arm_add_r	arm_rot_r	elbow_flex_r	pro_sup_r	wrist_flex_r	wrist_dev_r	arm_flex_l	arm_add_l	arm_rot_l	elbow_flex_l	pro_sup_l	wrist_flex_l	wrist_dev_l
1.05	-2.9007	1.3981	-1.80929	0.679368	0.663728	0.962532	0.343453	-0.204062	-0.0762895	1.17845	-0.0289982	0	0	-0.168145	0.122045	-0.266442	0.132559	0.0535916	0	0	-0.299017	0.013829	0.00869069	0.114396	-0.301524	0.816043	0.354708	0.896486	0	0	0.109246	-0.171046	0.101637	0.25444	1.5708	0	0
1.06	-2.91788	1.39819	-1.78892	0.67865	0.670919	0.963089	0.351767	-0.200492	-0.0852642	1.14394	-0.0153067	0	0	-0.178963	0.119085	-0.263288	0.129957	0.0560454	0	0	-0.301769	0.0179885	0.00858347	0.118646	-0.304216	0.82555	0.357476	0.884823	0	0	0.114506	-0.172262	0.109354	0.258129	1.5708	0	0
1.07	-2.89043	1.39714	-1.80865	0.677319	0.677284	0.963911	0.359988	-0.208387	-0.0976823	1.10717	-0.00608866	0	0	-0.183527	0.11943	-0.295542	0.135899	0.0591306	0	0	-0.306256	0.0151081	0.002799	0.125054	-0.304159	0.830459	0.357243	0.877376	0	0	0.122931	-0.17359	0.114547	0.260021	1.5708	0	0
1.08	-2.95113	1.39872	-1.74665	0.677004	0.684999	0.96391	0.36215	-0.194989	-0.111009	1.06349	0.0029383	0	0	-0.201579	0.113004	-0.255972	0.120791	0.0587852	0	0	-0.307421	0.0267222	0.00640102	0.127454	-0.308962	0.845933	0.361915	0.854314	0	0	0.126588	-0.173511	0.124464	0.263247	1.5708	0	0
1.09	-2.97066	1.39828	-1.7223	0.676189	0.692036	0.964243	0.363035	-0.191915	-0.127124	1.01757	0.0118417	0	0	-0.213806	0.109617	-0.251968	0.115358	0.0600051	0	0	-0.311121	0.0317287	0.00518445	0.132173	-0.31096	0.858081	0.362546	0.83975	0	0	0.133727	-0.172908	0.129156	0.262227	1.5708	0	0
1.1	-2.99049	1.39808	-1.69921	0.675594	0.699257	0.964449	0.362274	-0.187702	-0.143631	0.968521	0.0214693	0	0	-0.226033	0.106136	-0.248891	0.110129	0.0618513	0	0	-0.314324	0.036493	0.00555958	0.136226	-0.31234	0.866252	0.362667	0.830097	0	0	0.141107	-0.171552	0.132185	0.259413	1.5708	0	0
1.11	-3.01122	1.39717	-1.675	0.675093	0.706531	0.964649	0.358236	-0.183147	-0.162914	0.915784	0.0306978	0	0	-0.239531	0.102526	-0.244594	0.104029	0.0629512	0	0	-0.31818	0.0413897	0.00576971	0.14069	-0.313963	0.880687	0.363024	0.813814	0	0	0.14976	-0.169546	0.133062	0.253249	1.5708	0	0
1.12	-3.02979	1.39607	-1.65239	0.674652	0.713752	0.964782	0.351932	-0.17876	-0.184687	0.859572	0.0386589	0	0	-0.252867	0.099003	-0.239943	0.0985933	0.0658384	0	0	-0.322405	0.0458827	0.00538121	0.145911	-0.314888	0.895137	0.362008	0.799063	0	0	0.158216	-0.167972	0.133273	0.248219	1.5708	0	0
1.13	-3.0472	1.39493	-1.63091	0.674294	0.721028	0.964787	0.343663	-0.173751	-0.207801	0.800001	0.0437759	0	0	-0.266556	0.0954719	-0.234515	0.0925436	0.071375	0	0	-0.326493	0.050005	0.0048028	0.151462	-0.315539	0.910039	0.360614	0.781943	0	0	0.165187	-0.167198	0.134012	0.246297	1.5708	0	0
1.14	-3.06368	1.39413	-1.61129	0.674141	0.72847	0.964607	0.334364	-0.167449	-0.231159	0.737934	0.0475802	0	0	-0.280438	0.092027	-0.230002	0.0851376	0.0745943	0	0	-0.329769	0.0535597	0.00485695	0.156835	-0.316048	0.924457	0.358899	0.764754	0	0	0.171014	-0.166956	0.13525	0.245522	1.5708	0	0
1.15	-3.07748	1.3934	-1.59423	0.674122	0.735984	0.964307	0.323561	-0.16045	-0.256165	0.673355	0.050756	0	0	-0.294488	0.0887048	-0.225307	0.0770447	0.0763574	0	0	-0.332837	0.0564742	0.00457227	0.162031	-0.316788	0.940644	0.357895	0.748195	0	0	0.176268	-0.167423	0.137222	0.245591	1.5708	0	0
1.16	-3.08873	1.39356	-1.57971	0.674242	0.743502	0.963837	0.312397	-0.152524	-0.282311	0.606405	0.0529618	0	0	-0.307397	0.085563	-0.221127	0.0692783	0.0779525	0	0	-0.335012	0.0588018	0.00403095	0.166754	-0.317643	0.955684	0.357841	0.733387	0	0	0.181297	-0.168625	0.140869	0.246283	1.5708	0	0
1.17	-3.09644	1.39574	-1.57009	0.674648	0.751079	0.963065	0.303262	-0.142967	-0.305281	0.538419	0.054421	0	0	-0.318286	0.0831739	-0.218012	0.061728	0.0799208	0	0	-0.334958	0.0598937	0.00454625	0.170211	-0.317664	0.962371	0.357647	0.72646	0	0	0.186359	-0.169948	0.144984	0.2457	1.5708	0	0
1.18	-3.10429	1.39859	-1.56213	0.675417	0.758819	0.962099	0.29407	-0.130535	-0.32363	0.468836	0.0553093	0	0	-0.329412	0.0810122	-0.216019	0.0529596	0.0826191	0	0	-0.33393	0.0603056	0.00658654	0.172887	-0.318091	0.969358	0.35861	0.71771	0	0	0.190624	-0.171601	0.14939	0.245393	1.5708	0	0
1.19	-3.11201	1.40209	-1.55526	0.676444	0.766583	0.960985	0.285213	-0.115771	-0.336664	0.399261	0.0558342	0	0	-0.339887	0.0787719	-0.214717	0.0443356	0.0856315	0	0	-0.332273	0.0602647	0.00948629	0.175477	-0.319035	0.980584	0.360619	0.703633	0	0	0.194233	-0.173797	0.154683	0.246519	1.5708	0	0
1.2	-3.11927	1.40715	-1.55025	0.677703	0.774333	0.959642	0.277472	-0.0986154	-0.340573	0.329001	0.0567257	0	0	-0.347963	0.0768677	-0.215152	0.0370874	0.0896005	0	0	-0.329178	0.0597144	0.0133986	0.177914	-0.319162	0.987737	0.361293	0.696276	0	0	0.197149	-0.175926	0.158441	0.248401	1.5708	0	0
1.21	-3.1282	1.41353	-1.54548	0.679198	0.782153	0.958083	0.269863	-0.078931	-0.332874	0.257442	0.0556223	0	0	-0.354612	0.0753684	-0.21724	0.0301551	0.0944047	0	0	-0.324692	0.0588753	0.0191244	0.180055	-0.319335	0.991864	0.362047	0.689017	0	0	0.199323	-0.177744	0.162037	0.250882	1.5708	0	0
1.22	-3.13762	1.41985	-1.53893	0.680668	0.79022	0.956491	0.258285	-0.0585461	-0.315887	0.182347	0.0496642	0	0	-0.360751	0.0733138	-0.219081	0.0245944	0.0998291	0	0	-0.319736	0.0583658	0.0235279	0.181745	-0.319264	0.996583	0.36228	0.682281	0	0	0.200584	-0.179671	0.165674	0.253433	1.5708	0	0
1.23	3.13736	1.42546	-1.53222	0.682092	0.798497	0.954907	0.242397	-0.0390871	-0.291062	0.10584	0.037538	0	0	-0.366883	0.0707167	-0.220227	0.0209427	0.105532	0	0	-0.315088	0.0579845	0.0265599	0.183012	-0.318709	1.0031	0.361627	0.677143	0	0	0.201744	-0.181666	0.169631	0.255136	1.5708	0	0
1.24	3.13273	1.43054	-1.52904	0.6835	0.807007	0.953263	0.226154	-0.0225296	-0.26365	0.0364547	0.022286	0	0	-0.372902	0.0685047	-0.222232	0.0191043	0.111598	0	0	-0.310529	0.057144	0.0292672	0.183652	-0.317905	1.00804	0.360681	0.673725	0	0	0.201863	-0.183668	0.173804	0.257885	1.5708	0	0
1.25	3.13445	1.43538	-1.53173	0.684708	0.815615	0.951592	0.217845	-0.0115657	-0.251614	0	0.0145968	0	0	-0.377692	0.0670601	-0.224903	0.0201371	0.118177	0	0	-0.306128	0.055934	0.0311212	0.183988	-0.317144	1.01014	0.359593	0.673399	0	0	0.202255	-0.184606	0.175186	0.258938	1.5708	0	0
1.26	3.12582	1.43564	-1.52582	0.685732	0.823551	0.950271	0.22747	-0.00456516	-0.258497	0	0.0187491	0	0	-0.383879	0.0679107	-0.22148	0.0260234	0.120878	0	0	-0.307551	0.0568845	0.0334408	0.186381	-0.31771	1.01344	0.359337	0.671877	0	0	0.203058	-0.18453	0.177748	0.259552	1.5708	0	0
1.27	3.12381	1.43716	-1.52377	0.686561	0.832239	0.949079	0.230508	0.000644344	-0.269607	0	0.0210926	0	0	-0.389485	0.0653234	-0.223832	0.0320787	0.126466	0	0	-0.306836	0.0576622	0.0337481	0.187668	-0.318253	1.01651	0.359076	0.670476	0	0	0.203292	-0.184476	0.179581	0.259671	1.5708	0	0
1.28	3.11795	1.43756	-1.51572	0.687196	0.841389	0.948091	0.228871	0.00614524	-0.281642	0	0.0203577	0	0	-0.394826	0.0609451	-0.226696	0.0411428	0.13282	0	0	-0.30669	0.0595974	0.0319323	0.18891	-0.318796	1.0189	0.35904	0.667724	0	0	0.20276	-0.184197	0.181123	0.259964	1.5708	0	0
1.29	-3.04414	1.40645	-1.6217	0.686094	0.849241	0.951315	0.189098	-0.0124007	-0.300993	0	0.0171801	0	0	-0.429611	0.072465	-0.211821	0.0521978	0.124072	0	0	-0.345843	0.0454527	0.0148145	0.199201	-0.318013	1.02322	0.359551	0.663454	0	0	0.212674	-0.186676	0.18699	0.261316	1.5708	0	0
1.3	3.11344	1.43438	-1.50078	0.688037	0.860964	0.946885	0.214211	0.0136928	-0.305719	0.00796206	0.0140537	0	0	-0.409866	0.0458361	-0.237039	0.0615147	0.147926	0	0	-0.308578	0.0644725	0.0232317	0.189204	-0.321399	1.02562	0.360662	0.661636	0	0	0.199396	-0.183735	0.183	0.262468	1.5708	0	0
1.31	3.11064	1.43309	-1.49407	0.688371	0.870707	0.946264	0.219739	0.0121543	-0.326272	0.0470337	0.018834	0	0	-0.412482	0.0394001	-0.244638	0.0801044	0.15582	0	0	-0.308886	0.0674251	0.0186905	0.188992	-0.32358	1.03072	0.362263	0.660162	0	0	0.195966	-0.182647	0.180668	0.263711	1.5708	0	0
1.32	3.11649	1.43163	-1.49508	0.688637	0.880746	0.94562	0.225888	0.00688894	-0.349866	0.0914665	0.0299401	0	0	-0.415084	0.0336083	-0.25029	0.0994227	0.162052	0	0	-0.308606	0.0694834	0.0125299	0.188049	-0.325796	1.03669	0.364349	0.659321	0	0	0.191464	-0.181916	0.178249	0.265435	1.5708	0	0
1.33	3.11901	1.42959	-1.49163	0.688916	0.89115	0.945062	0.225661	0.00351012	-0.366499	0.122789	0.0438522	0	0	-0.418213	0.0264338	-0.254284	0.119152	0.166652	0	0	-0.30801	0.0722925	0.00518047	0.186035	-0.327914	1.04146	0.366567	0.660046	0	0	0.185768	-0.181483	0.17567	0.26708	1.5708	0	0
1.34	3.11302	1.42775	-1.48006	0.68941	0.901805	0.944594	0.219871	0.00462419	-0.374045	0.136295	0.0522927	0	0	-0.420015	0.0171511	-0.25935	0.141095	0.17037	0	0	-0.306518	0.0761296	-0.00165176	0.183313	-0.329851	1.04403	0.368843	0.66072	0	0	0.179136	-0.180999	0.172243	0.269087	1.5708	0	0
1.35	3.09898	1.42646	-1.46076	0.690174	0.912672	0.944211	0.209028	0.0105865	-0.370866	0.132494	0.0417719	0	0	-0.419465	0.00565589	-0.26565	0.166238	0.172833	0	0	-0.303947	0.0808597	-0.00783668	0.179831	-0.331167	1.04359	0.370781	0.661	0	0	0.171888	-0.180507	0.167667	0.270825	1.5708	0	0
1.36	3.08241	1.42619	-1.44032	0.691248	0.923766	0.943796	0.196622	0.0183942	-0.36197	0.120913	0.00931438	0	0	-0.416011	-0.00671651	-0.274119	0.194938	0.173746	0	0	-0.299774	0.0853749	-0.0124789	0.175439	-0.33216	1.04108	0.372756	0.66113	0	0	0.164133	-0.179933	0.162493	0.272362	1.5708	0	0
1.37	3.06796	1.42661	-1.42327	0.692593	0.935059	0.943331	0.184747	0.02514	-0.356055	0.109935	-0.0293527	0	0	-0.4098	-0.0195175	-0.284112	0.227722	0.173102	0	0	-0.294322	0.0889927	-0.0158526	0.170441	-0.332974	1.04038	0.374273	0.662684	0	0	0.155978	-0.179497	0.157152	0.27352	1.5708	0	0
1.38	3.05373	1.42721	-1.40742	0.694197	0.946457	0.942879	0.175656	0.0300471	-0.356987	0.107621	-0.0555628	0	0	-0.401133	-0.0333183	-0.2946	0.264824	0.170607	0	0	-0.288172	0.0920116	-0.018185	0.165322	-0.333391	1.03982	0.375174	0.665009	0	0	0.147497	-0.179267	0.151797	0.27528	1.5708	0	0
